<?xml version="1.0" encoding="iso-8859-1"?>
<!-- Generator: Adobe Illustrator 19.0.0, SVG Export Plug-In . SVG Version: 6.00 Build 0)  -->
<svg version="1.1" id="Layer_1" xmlns="http://www.w3.org/2000/svg" xmlns:xlink="http://www.w3.org/1999/xlink" x="0px" y="0px"
	 viewBox="0 0 512 512" style="enable-background:new 0 0 512 512;" xml:space="preserve">
<g>
	<g>
		<path d="M503.983,4.276H8.017C3.588,4.276,0,7.865,0,12.292v487.415c0,4.427,3.588,8.017,8.017,8.017h495.967
			c4.428,0,8.017-3.589,8.017-8.017V12.292C512,7.865,508.412,4.276,503.983,4.276z M495.967,491.691H16.033V20.309h479.933V491.691
			z"/>
	</g>
</g>
<g>
	<g>
		<path d="M469.244,122.436V55.048c0-4.427-3.588-8.017-8.017-8.017h-98.338H256H149.111H50.772c-4.428,0-8.017,3.589-8.017,8.017
			v94.063v102.614v74.339c-12.322,3.5-21.378,14.846-21.378,28.274c0,13.429,9.056,24.775,21.378,28.274v74.339
			c0,4.427,3.588,8.017,8.017,8.017h98.338H256h106.889h98.338c4.428,0,8.017-3.589,8.017-8.017V354.338V251.724v-75.94
			c10.2-4.719,17.102-15.056,17.102-26.674S479.445,127.156,469.244,122.436z M370.906,63.065h82.305v56.897
			c-11.759,1.502-21.364,9.973-24.533,21.132h-57.772V63.065z M370.906,157.127h57.788c0.743,2.598,1.841,5.085,3.262,7.389
			l-55.875,60.955c-1.658-0.837-3.389-1.515-5.174-2.022V157.127z M264.017,63.065h90.856v78.029h-90.856V63.065z M264.017,157.127
			h90.856v66.323c-9.772,2.775-17.482,10.485-20.258,20.258h-70.598V157.127z M264.017,259.741h70.594
			c0.569,2.004,1.35,3.94,2.332,5.778l-66.096,63.453c-2.145-1.264-4.436-2.244-6.83-2.919V259.741z M157.127,63.065h90.856v78.029
			h-90.856V63.065z M157.127,157.127h90.856v86.58h-70.598c-2.775-9.772-10.486-17.483-20.258-20.258V157.127z M175.057,265.521
			c0.982-1.84,1.764-3.774,2.332-5.778h70.594v66.312c-2.394,0.676-4.685,1.655-6.83,2.919L175.057,265.521z M230.054,340.542
			c-0.982,1.84-1.764,3.774-2.332,5.779h-70.594v-66.312c2.394-0.676,4.685-1.655,6.83-2.919L230.054,340.542z M58.789,63.065
			h82.305v78.029H58.789V63.065z M58.789,157.127h82.305v66.323c-9.772,2.775-17.483,10.485-20.258,20.258H58.789V157.127z
			 M58.79,259.741h62.062c0.739,2.58,1.827,5.052,3.234,7.342l-57.488,62.49c-2.418-1.548-5.043-2.74-7.808-3.521V259.741z
			 M37.411,354.338c0-7.368,5.993-13.361,13.361-13.361c3.99,0,7.741,1.766,10.294,4.844c0.001,0.001,0.001,0.002,0.002,0.003
			c2.005,2.421,3.065,5.365,3.065,8.514c0,7.368-5.993,13.361-13.361,13.361C43.405,367.699,37.411,361.706,37.411,354.338z
			 M141.094,448.935H58.789v-66.323c9.772-2.775,17.483-10.486,20.258-20.258h62.047V448.935z M141.094,346.322H79.032
			c-0.455-1.603-1.043-3.164-1.763-4.668l58.603-63.7c1.673,0.849,3.42,1.534,5.221,2.046V346.322z M140.084,261.544
			c-0.001-0.001-0.001-0.001-0.002-0.002c-2.794-2.572-4.333-6.057-4.333-9.817c0.001-7.369,5.994-13.362,13.362-13.362
			c7.368,0,13.361,5.993,13.361,13.361c0,3.45-1.325,6.732-3.73,9.238c-0.001,0.001-0.002,0.002-0.003,0.003
			c-2.551,2.656-5.97,4.121-9.628,4.121C145.772,265.087,142.567,263.829,140.084,261.544z M247.983,448.935h-90.856v-86.58h70.598
			c2.775,9.772,10.486,17.483,20.258,20.258V448.935z M242.639,354.338c0-3.45,1.325-6.732,3.73-9.238
			c0.001-0.001,0.002-0.002,0.003-0.003c2.551-2.656,5.97-4.12,9.628-4.12c3.658,0,7.076,1.463,9.628,4.12
			c0.001,0.001,0.002,0.002,0.003,0.003c2.406,2.507,3.73,5.787,3.73,9.238c0,7.368-5.993,13.361-13.361,13.361
			C248.632,367.699,242.639,361.706,242.639,354.338z M354.873,448.935h-90.856v-66.323c9.772-2.775,17.483-10.486,20.258-20.258
			h70.598V448.935z M354.873,346.322h-70.594c-0.569-2.004-1.35-3.939-2.332-5.778l66.096-63.453
			c2.145,1.265,4.436,2.244,6.83,2.919V346.322z M353.262,260.965c-0.001-0.001-0.002-0.002-0.003-0.003
			c-2.405-2.507-3.73-5.787-3.73-9.238c0-7.368,5.993-13.361,13.361-13.361c3.329,0,6.527,1.253,9.008,3.526
			c0.001,0.001,0.002,0.003,0.004,0.004c0.001,0.001,0.002,0.001,0.003,0.002c2.803,2.573,4.347,6.063,4.347,9.83
			c-0.001,7.368-5.994,13.361-13.362,13.361C359.232,265.086,355.813,263.622,353.262,260.965z M453.211,448.935h-82.305v-86.58
			h82.305V448.935z M453.211,346.322h-82.305v-66.323c9.772-2.775,17.482-10.486,20.258-20.258h62.047V346.322z M453.211,243.708
			h-62.063c-0.743-2.598-1.841-5.085-3.262-7.389l55.875-60.955c2.957,1.493,6.148,2.472,9.45,2.897V243.708z M459.638,162.201
			c-0.01,0.002-0.019,0.003-0.029,0.004c-0.873,0.175-1.766,0.265-2.657,0.265c-3.328,0-6.527-1.253-9.008-3.526
			c-0.001-0.001-0.002-0.003-0.004-0.004c-0.001-0.001-0.002-0.001-0.002-0.002c-2.804-2.573-4.347-6.063-4.347-9.83
			c0-7.368,5.993-13.361,13.361-13.361c0.891,0,1.784,0.09,2.657,0.265c0.01,0.002,0.019,0.003,0.029,0.004
			c6.186,1.261,10.675,6.766,10.675,13.094C470.313,155.438,465.824,160.943,459.638,162.201z"/>
	</g>
</g>
<g>
</g>
<g>
</g>
<g>
</g>
<g>
</g>
<g>
</g>
<g>
</g>
<g>
</g>
<g>
</g>
<g>
</g>
<g>
</g>
<g>
</g>
<g>
</g>
<g>
</g>
<g>
</g>
<g>
</g>
</svg>
