<?xml version="1.0" encoding="iso-8859-1"?>
<!-- Generator: Adobe Illustrator 19.0.0, SVG Export Plug-In . SVG Version: 6.00 Build 0)  -->
<svg version="1.1" id="Layer_1" xmlns="http://www.w3.org/2000/svg" xmlns:xlink="http://www.w3.org/1999/xlink" x="0px" y="0px"
	 viewBox="0 0 512 512" style="enable-background:new 0 0 512 512;" xml:space="preserve">
<g>
	<g>
		<path d="M434.389,312.293c46.03-32.869,73.299-84.029,73.299-138.213C507.688,78.092,423.794,0,320.674,0
			c-60.71,0-117.377,27.33-152.487,73.297H12.396c-4.465,0-8.084,3.62-8.084,8.084v340.615c0,4.465,3.62,8.084,8.084,8.084h60.901
			v73.836c0,3.251,1.947,6.185,4.942,7.448c1.014,0.428,2.081,0.636,3.14,0.636c2.068,0,4.104-0.793,5.643-2.294l81.723-79.626
			h145.462c4.466,0,8.084-3.62,8.084-8.084v-73.859c15.185-0.121,30.277-1.932,44.916-5.422l82.131,30.8
			c0.925,0.347,1.886,0.515,2.837,0.515c2.25,0,4.447-0.94,6.01-2.675c2.225-2.471,2.71-6.051,1.222-9.024L434.389,312.293z
			 M306.122,413.912H165.457c-2.108,0-4.133,0.824-5.642,2.294l-70.35,68.547v-62.756c0-4.465-3.62-8.084-8.084-8.084H20.48V89.465
			h136.74c-9.8,16.424-16.734,34.365-20.411,52.817H72.758c-4.465,0-8.084,3.62-8.084,8.084v25.869c0,4.465,3.62,8.084,8.084,8.084
			h61.235c0.939,15.119,3.953,29.916,9.003,44.194H72.758c-4.465,0-8.084,3.62-8.084,8.084v25.869c0,4.465,3.62,8.084,8.084,8.084
			h92.257c12.301,17.171,27.697,32.12,45.468,44.194H72.758c-4.465,0-8.084,3.62-8.084,8.084v25.87c0,4.465,3.62,8.084,8.084,8.084
			h181.086c4.466,0,8.084-3.62,8.084-8.084v-9.315c14.293,4.4,29.09,7.162,44.194,8.242V413.912z M134.444,158.451
			c-0.312,3.233-0.551,6.469-0.669,9.701H80.842v-9.701H134.444z M149.705,244.682c1.564,3.278,3.237,6.515,5.019,9.701H80.842
			v-9.701H149.705z M239.464,330.914c2.08,0.935,4.181,1.835,6.296,2.697v7.004H80.842v-9.701H239.464z M370.546,326.699
			c-1.542-0.578-3.219-0.67-4.816-0.269c-14.638,3.691-29.796,5.562-45.056,5.562c-1.858,0-3.828-0.037-6.2-0.115h-0.001
			c-19.966-0.657-39.411-4.477-57.798-11.349c-4.066-1.52-8.135-3.215-12.095-5.04c-28.158-12.974-51.903-32.868-68.67-57.536
			c-0.002-0.003-0.005-0.008-0.008-0.011c-0.003-0.005-0.008-0.011-0.011-0.015c0-0.001-0.001-0.001-0.001-0.002
			c-5.27-7.757-9.83-15.988-13.558-24.469c-0.001-0.002-0.002-0.005-0.003-0.008c-0.013-0.03-0.028-0.06-0.041-0.091
			c-0.001-0.001-0.001-0.003-0.001-0.004c-7.975-18.184-12.158-37.437-12.429-57.227c0,0,0,0,0-0.001v-0.001l-0.013-0.739
			c-0.008-0.434-0.016-0.869-0.016-1.304c0-7.468,0.582-15.031,1.731-22.481v-0.001c3.642-23.619,12.795-45.643,27.204-65.464
			c31.849-43.809,84.898-69.965,141.91-69.965c94.205,0,170.846,70.839,170.846,157.912c0,51.015-26.898,99.154-71.953,128.773
			c-3.423,2.251-4.622,6.707-2.79,10.37l18.961,37.924L370.546,326.699z"/>
	</g>
</g>
<g>
	<g>
		<path d="M459.76,112.075c-2.099-3.941-6.994-5.434-10.936-3.334c-3.941,2.1-5.433,6.996-3.334,10.936
			c9.087,17.053,13.694,35.357,13.694,54.402c0,4.465,3.618,8.084,8.084,8.084c4.466,0,8.084-3.62,8.084-8.084
			C475.352,152.355,470.107,131.493,459.76,112.075z"/>
	</g>
</g>
<g>
	<g>
		<path d="M431.866,75.625c-29.444-27.914-68.933-43.288-111.192-43.288c-4.466,0-8.084,3.62-8.084,8.084
			c0,4.465,3.618,8.084,8.084,8.084c38.102,0,73.641,13.798,100.068,38.854c1.563,1.482,3.565,2.217,5.561,2.217
			c2.141,0,4.278-0.846,5.867-2.522C435.242,83.814,435.106,78.697,431.866,75.625z"/>
	</g>
</g>
<g>
	<g>
		<path d="M312.051,155.217c-17.534,0-31.798,14.265-31.798,31.798c0,17.533,14.264,31.798,31.798,31.798
			s31.798-14.265,31.798-31.798C343.848,169.482,329.585,155.217,312.051,155.217z M312.051,202.644
			c-8.618,0-15.629-7.012-15.629-15.629c0-8.618,7.012-15.63,15.629-15.63c8.618,0,15.629,7.012,15.629,15.63
			C327.68,195.632,320.668,202.644,312.051,202.644z"/>
	</g>
</g>
<g>
	<g>
		<path d="M398.282,155.217c-17.534,0-31.798,14.265-31.798,31.798c0,17.533,14.264,31.798,31.798,31.798
			s31.798-14.265,31.798-31.798C430.08,169.482,415.816,155.217,398.282,155.217z M398.282,202.644
			c-8.618,0-15.629-7.012-15.629-15.629c0-8.618,7.012-15.63,15.629-15.63s15.629,7.012,15.629,15.63
			C413.912,195.632,406.9,202.644,398.282,202.644z"/>
	</g>
</g>
<g>
	<g>
		<path d="M225.819,155.217c-17.533,0-31.798,14.265-31.798,31.798c0,17.533,14.265,31.798,31.798,31.798
			c17.533,0,31.798-14.265,31.798-31.798C257.617,169.482,243.352,155.217,225.819,155.217z M225.819,202.644
			c-8.618,0-15.63-7.012-15.63-15.629c0-8.618,7.012-15.63,15.63-15.63c8.618,0,15.629,7.012,15.629,15.63
			C241.448,195.632,234.437,202.644,225.819,202.644z"/>
	</g>
</g>
<g>
</g>
<g>
</g>
<g>
</g>
<g>
</g>
<g>
</g>
<g>
</g>
<g>
</g>
<g>
</g>
<g>
</g>
<g>
</g>
<g>
</g>
<g>
</g>
<g>
</g>
<g>
</g>
<g>
</g>
</svg>
