<?xml version="1.0" encoding="iso-8859-1"?>
<!-- Generator: Adobe Illustrator 19.0.0, SVG Export Plug-In . SVG Version: 6.00 Build 0)  -->
<svg version="1.1" id="Layer_1" xmlns="http://www.w3.org/2000/svg" xmlns:xlink="http://www.w3.org/1999/xlink" x="0px" y="0px"
	 viewBox="0 0 512 512" style="enable-background:new 0 0 512 512;" xml:space="preserve">
<g>
	<g>
		<path d="M444.758,202.513c-2.576-9.112-5.851-18.113-9.73-26.757c-1.812-4.039-6.559-5.848-10.596-4.031
			c-4.039,1.813-5.844,6.558-4.031,10.596c3.56,7.932,6.564,16.194,8.928,24.555c0.999,3.532,4.213,5.837,7.71,5.837
			c0.723,0,1.456-0.098,2.186-0.305C443.485,211.204,445.963,206.774,444.758,202.513z"/>
	</g>
</g>
<g>
	<g>
		<path d="M407.308,131.18c-19.152-23.191-43.723-41.935-71.059-54.206c-4.035-1.813-8.783-0.01-10.596,4.031
			c-1.815,4.039-0.012,8.783,4.029,10.596c25.102,11.269,47.669,28.485,65.262,49.788c1.585,1.92,3.877,2.913,6.186,2.913
			c1.798,0,3.606-0.602,5.101-1.835C409.645,139.647,410.128,134.594,407.308,131.18z"/>
	</g>
</g>
<g>
	<g>
		<path d="M503.983,247.983h-26.348c-4.142-115.936-97.682-209.477-213.618-213.618V8.017C264.017,3.588,260.428,0,256,0
			c-4.428,0-8.017,3.588-8.017,8.017v26.348C132.047,38.506,38.507,132.047,34.365,247.983H8.017C3.588,247.983,0,251.572,0,256
			c0,4.428,3.588,8.017,8.017,8.017h26.348c4.142,115.936,97.682,209.477,213.618,213.618v26.348c0,4.428,3.588,8.017,8.017,8.017
			c4.428,0,8.017-3.588,8.017-8.017v-26.348c115.936-4.142,209.476-97.682,213.618-213.618h26.348c4.428,0,8.017-3.588,8.017-8.017
			C512,251.572,508.412,247.983,503.983,247.983z M264.017,50.409c107.094,4.125,193.449,90.481,197.574,197.574h-35.297
			c-4.077-87.642-74.635-158.201-162.277-162.278V50.409z M247.983,50.409v35.297c-87.642,4.077-158.201,74.635-162.278,162.277
			H50.409C54.534,140.89,140.89,54.534,247.983,50.409z M247.983,461.592C140.89,457.466,54.534,371.11,50.409,264.017h35.297
			c4.077,87.642,74.635,158.201,162.277,162.278V461.592z M256,393.353c-4.428,0-8.017,3.588-8.017,8.017v8.879
			c-78.8-4.049-142.183-67.432-146.232-146.232h8.879c4.428,0,8.017-3.588,8.017-8.017c0-4.428-3.588-8.017-8.017-8.017h-8.879
			c4.049-78.8,67.432-142.183,146.232-146.232v8.879c0,4.428,3.588,8.017,8.017,8.017c4.428,0,8.017-3.588,8.017-8.017v-8.879
			c78.8,4.049,142.183,67.432,146.232,146.232h-8.879c-4.428,0-8.017,3.588-8.017,8.017c0,4.428,3.588,8.017,8.017,8.017h8.879
			c-4.049,78.8-67.432,142.183-146.232,146.232v-8.879C264.017,396.941,260.428,393.353,256,393.353z M264.017,461.591v-35.297
			c87.642-4.078,158.201-74.637,162.278-162.278h35.297C457.466,371.11,371.11,457.466,264.017,461.591z"/>
	</g>
</g>
<g>
	<g>
		<path d="M256,128.267c-70.433,0-127.733,57.3-127.733,127.733S185.567,383.733,256,383.733S383.733,326.433,383.733,256
			S326.433,128.267,256,128.267z M354.915,204.159c6.982,13.268,11.373,28.1,12.493,43.825h-26.599
			c-0.626-15.161-3.023-30.028-7.056-43.825H354.915z M344.647,188.125h-16.538c-4.573-11.016-10.193-20.768-16.611-29.036
			C324.378,166.494,335.645,176.396,344.647,188.125z M298.145,247.983c-0.285-15.191-1.384-30.07-3.224-43.825h22.041
			c4.452,13.583,7.108,28.51,7.797,43.825H298.145z M324.759,264.017c-0.688,15.315-3.345,30.241-7.797,43.825h-22.041
			c1.841-13.755,2.938-28.634,3.224-43.825H324.759z M310.567,188.125h-18.226c-2.124-11.111-5.373-24.179-10.183-35.268
			C293.223,160.336,303.079,172.456,310.567,188.125z M256,144.301c3.715,0,13.354,11.276,19.997,43.825h-39.994
			C242.646,155.576,252.285,144.301,256,144.301z M200.503,159.089c-6.418,8.269-12.038,18.02-16.611,29.036h-16.538
			C176.355,176.396,187.622,166.494,200.503,159.089z M213.855,247.983h-26.613c0.688-15.315,3.345-30.241,7.797-43.825h22.041
			C215.238,217.913,214.14,232.792,213.855,247.983z M217.078,307.841h-22.041c-4.452-13.584-7.108-28.51-7.797-43.825h26.613
			C214.14,279.208,215.239,294.087,217.078,307.841z M157.085,204.159h21.162c-4.033,13.796-6.429,28.663-7.056,43.825h-26.599
			C145.712,232.259,150.103,217.427,157.085,204.159z M157.085,307.841c-6.982-13.268-11.373-28.1-12.493-43.825h26.599
			c0.626,15.161,3.023,30.028,7.056,43.825H157.085z M167.353,323.875h16.538c4.573,11.016,10.193,20.768,16.611,29.036
			C187.622,345.506,176.355,335.604,167.353,323.875z M201.433,323.875h18.226c2.124,11.112,5.372,24.179,10.183,35.268
			C218.777,351.664,208.921,339.544,201.433,323.875z M219.659,188.125h-18.226c7.488-15.669,17.344-27.788,28.409-35.268
			C225.032,163.946,221.784,177.013,219.659,188.125z M256,367.699c-3.715,0-13.354-11.276-19.997-43.825h39.994
			C269.354,356.424,259.716,367.699,256,367.699z M278.743,307.841h-45.487c-1.923-13.642-3.066-28.553-3.364-43.825h52.214
			C281.81,279.288,280.666,294.199,278.743,307.841z M229.893,247.983c0.298-15.271,1.441-30.182,3.364-43.825h45.487
			c1.923,13.642,3.066,28.553,3.364,43.825H229.893z M282.158,359.143c4.81-11.089,8.058-24.156,10.183-35.268h18.226
			C303.079,339.544,293.223,351.663,282.158,359.143z M311.497,352.911c6.418-8.269,12.038-18.021,16.611-29.036h16.538
			C335.645,335.604,324.378,345.506,311.497,352.911z M354.914,307.841h-21.162c4.034-13.796,6.43-28.664,7.057-43.825h26.599
			C366.288,279.741,361.896,294.573,354.914,307.841z"/>
	</g>
</g>
<g>
</g>
<g>
</g>
<g>
</g>
<g>
</g>
<g>
</g>
<g>
</g>
<g>
</g>
<g>
</g>
<g>
</g>
<g>
</g>
<g>
</g>
<g>
</g>
<g>
</g>
<g>
</g>
<g>
</g>
</svg>
